<svg id="visual" viewBox="0 0 900 600" width="900" height="600" xmlns="http://www.w3.org/2000/svg" xmlns:xlink="http://www.w3.org/1999/xlink" version="1.1"><path d="M0 406L75 280L150 419L225 364L300 417L375 427L450 419L525 343L600 429L675 289L750 476L825 470L900 317L900 601L825 601L750 601L675 601L600 601L525 601L450 601L375 601L300 601L225 601L150 601L75 601L0 601Z" fill="#370d69"></path><path d="M0 355L75 480L150 480L225 336L300 300L375 484L450 450L525 393L600 297L675 333L750 344L825 468L900 451L900 601L825 601L750 601L675 601L600 601L525 601L450 601L375 601L300 601L225 601L150 601L75 601L0 601Z" fill="#3a166d"></path><path d="M0 403L75 467L150 478L225 471L300 478L375 350L450 484L525 434L600 365L675 404L750 435L825 376L900 385L900 601L825 601L750 601L675 601L600 601L525 601L450 601L375 601L300 601L225 601L150 601L75 601L0 601Z" fill="#3d1e72"></path><path d="M0 503L75 425L150 507L225 513L300 469L375 509L450 446L525 441L600 417L675 522L750 524L825 429L900 375L900 601L825 601L750 601L675 601L600 601L525 601L450 601L375 601L300 601L225 601L150 601L75 601L0 601Z" fill="#402576"></path><path d="M0 430L75 460L150 546L225 532L300 494L375 506L450 466L525 449L600 538L675 525L750 533L825 511L900 492L900 601L825 601L750 601L675 601L600 601L525 601L450 601L375 601L300 601L225 601L150 601L75 601L0 601Z" fill="#432b7a"></path><path d="M0 476L75 542L150 511L225 489L300 546L375 538L450 496L525 489L600 518L675 477L750 511L825 482L900 503L900 601L825 601L750 601L675 601L600 601L525 601L450 601L375 601L300 601L225 601L150 601L75 601L0 601Z" fill="#47327f"></path><path d="M0 571L75 528L150 520L225 526L300 512L375 561L450 539L525 546L600 560L675 517L750 550L825 536L900 531L900 601L825 601L750 601L675 601L600 601L525 601L450 601L375 601L300 601L225 601L150 601L75 601L0 601Z" fill="#4a3883"></path></svg>